<svg width="68" height="68" viewBox="0 0 68 68" fill="none" xmlns="http://www.w3.org/2000/svg">
<path d="M61.6534 45.1065L43.5201 12.4665C41.0834 8.07484 37.7117 5.6665 34.0001 5.6665C30.2884 5.6665 26.9167 8.07484 24.4801 12.4665L6.34673 45.1065C4.05173 49.2715 3.79673 53.2665 5.63839 56.4115C7.48006 59.5565 11.1067 61.2848 15.8667 61.2848H52.1334C56.8934 61.2848 60.5201 59.5565 62.3617 56.4115C64.2034 53.2665 63.9484 49.2432 61.6534 45.1065ZM31.8751 25.4998C31.8751 24.3382 32.8384 23.3748 34.0001 23.3748C35.1617 23.3748 36.1251 24.3382 36.1251 25.4998V39.6665C36.1251 40.8282 35.1617 41.7915 34.0001 41.7915C32.8384 41.7915 31.8751 40.8282 31.8751 39.6665V25.4998ZM36.0117 50.1782C35.8701 50.2915 35.7284 50.4048 35.5867 50.5182C35.4167 50.6315 35.2467 50.7165 35.0767 50.7732C34.9067 50.8582 34.7367 50.9148 34.5384 50.9432C34.3684 50.9715 34.1701 50.9998 34.0001 50.9998C33.8301 50.9998 33.6317 50.9715 33.4334 50.9432C33.2634 50.9148 33.0934 50.8582 32.9234 50.7732C32.7534 50.7165 32.5834 50.6315 32.4134 50.5182C32.2717 50.4048 32.1301 50.2915 31.9884 50.1782C31.4784 49.6398 31.1667 48.9032 31.1667 48.1665C31.1667 47.4298 31.4784 46.6932 31.9884 46.1548C32.1301 46.0415 32.2717 45.9282 32.4134 45.8148C32.5834 45.7015 32.7534 45.6165 32.9234 45.5598C33.0934 45.4748 33.2634 45.4182 33.4334 45.3898C33.8017 45.3048 34.1984 45.3048 34.5384 45.3898C34.7367 45.4182 34.9067 45.4748 35.0767 45.5598C35.2467 45.6165 35.4167 45.7015 35.5867 45.8148C35.7284 45.9282 35.8701 46.0415 36.0117 46.1548C36.5217 46.6932 36.8334 47.4298 36.8334 48.1665C36.8334 48.9032 36.5217 49.6398 36.0117 50.1782Z" fill="url(#paint0_linear_49_193)"/>
<defs>
<linearGradient id="paint0_linear_49_193" x1="34.0001" y1="5.6665" x2="34.0001" y2="61.2848" gradientUnits="userSpaceOnUse">
<stop stop-color="#DED9B1"/>
<stop offset="1" stop-color="#E4D184"/>
</linearGradient>
</defs>
</svg>
