<svg width="46" height="46" viewBox="0 0 46 46" fill="none" xmlns="http://www.w3.org/2000/svg">
<circle cx="23" cy="23" r="23" fill="#121212"/>
<path d="M8.60074 23.25L10.981 15.9958C11.1158 15.5852 11.499 15.3076 11.9312 15.3076H14.6141C14.9642 15.3076 15.2887 15.1245 15.4699 14.825L17.4761 11.5069C17.8815 10.8366 18.8653 10.8715 19.2221 11.5689L20.3326 13.7395C20.6862 14.4305 21.658 14.4728 22.0702 13.815L26.1018 7.38175C26.4981 6.74927 27.4226 6.75822 27.8066 7.39827L31.8886 14.2015C32.0693 14.5028 32.3948 14.6871 32.7461 14.6871H33.5061C33.9662 14.6871 34.367 15.001 34.477 15.4478L36.3993 23.25" stroke="white" stroke-width="1.6" stroke-linecap="round" stroke-linejoin="bevel"/>
<path d="M8.60074 23.25L10.981 30.5042C11.1158 30.9148 11.499 31.1924 11.9312 31.1924L14.6141 31.1924C14.9642 31.1924 15.2887 31.3755 15.4699 31.675L17.4761 34.9931C17.8815 35.6634 18.8653 35.6285 19.2221 34.9311L20.3326 32.7605C20.6862 32.0695 21.658 32.0272 22.0702 32.685L26.1018 39.1182C26.4981 39.7507 27.4226 39.7418 27.8066 39.1017L31.8886 32.2985C32.0693 31.9972 32.3948 31.8129 32.7461 31.8129L33.5061 31.8129C33.9662 31.8129 34.367 31.499 34.477 31.0522L36.3993 23.25" stroke="white" stroke-width="1.6" stroke-linecap="round"/>
<path d="M4 23H41" stroke="white" stroke-width="1.1" stroke-linecap="round" stroke-linejoin="round" stroke-dasharray="2 2.8"/>
</svg>
