<svg width="120" height="46" viewBox="0 0 120 46" fill="none" xmlns="http://www.w3.org/2000/svg">
<path d="M56.936 27V18.12H59.06V27H56.936ZM65.8821 27.114C64.1581 27.114 62.8461 26.74 61.9461 25.992C61.0461 25.24 60.5961 24.102 60.5961 22.578C60.5961 21.606 60.8021 20.78 61.2141 20.1C61.6261 19.416 62.2321 18.896 63.0321 18.54C63.8321 18.184 64.8081 18.006 65.9601 18.006C66.7321 18.006 67.4581 18.082 68.1381 18.234V19.938C67.4821 19.794 66.8101 19.722 66.1221 19.722C64.9981 19.722 64.1661 19.954 63.6261 20.418C63.0901 20.882 62.8221 21.594 62.8221 22.554C62.8221 23.53 63.0841 24.248 63.6081 24.708C64.1361 25.168 64.9381 25.398 66.0141 25.398C66.7381 25.398 67.4461 25.306 68.1381 25.122V26.832C67.4301 27.02 66.6781 27.114 65.8821 27.114ZM71.5751 25.41H76.5911V27H69.4751V18.12H76.5311V19.71H71.5751V21.666H75.9011V23.256H71.5751V25.41ZM83.8726 22.422C84.4046 22.53 84.8186 22.758 85.1146 23.106C85.4106 23.454 85.5586 23.91 85.5586 24.474C85.5586 25.042 85.4086 25.52 85.1086 25.908C84.8086 26.292 84.3106 26.588 83.6146 26.796C82.9226 27 81.9966 27.102 80.8366 27.102C80.4366 27.102 79.9826 27.084 79.4746 27.048C78.9706 27.016 78.5046 26.974 78.0766 26.922V18.366C78.5446 18.258 79.0606 18.172 79.6246 18.108C80.1926 18.044 80.7386 18.012 81.2626 18.012C82.6746 18.012 83.7026 18.222 84.3466 18.642C84.9946 19.062 85.3186 19.686 85.3186 20.514C85.3186 20.982 85.1906 21.386 84.9346 21.726C84.6786 22.066 84.3246 22.298 83.8726 22.422ZM81.4966 19.476C81.0406 19.476 80.5926 19.518 80.1526 19.602V21.714H81.6766C82.2606 21.714 82.6826 21.624 82.9426 21.444C83.2066 21.26 83.3386 20.978 83.3386 20.598C83.3386 20.334 83.2786 20.12 83.1586 19.956C83.0386 19.792 82.8446 19.672 82.5766 19.596C82.3086 19.516 81.9486 19.476 81.4966 19.476ZM81.3946 25.638C81.9666 25.638 82.4166 25.592 82.7446 25.5C83.0726 25.408 83.3026 25.274 83.4346 25.098C83.5666 24.918 83.6326 24.688 83.6326 24.408C83.6326 24.124 83.5726 23.894 83.4526 23.718C83.3366 23.542 83.1486 23.412 82.8886 23.328C82.6326 23.244 82.2926 23.202 81.8686 23.202H80.1526V25.572C80.5046 25.616 80.9186 25.638 81.3946 25.638ZM88.9891 25.41H94.0051V27H86.8891V18.12H93.9451V19.71H88.9891V21.666H93.3151V23.256H88.9891V25.41ZM101.215 27L98.7487 23.766H98.6767C98.3887 23.766 98.0207 23.752 97.5727 23.724V27H95.4907V18.366C95.9427 18.262 96.4487 18.178 97.0087 18.114C97.5687 18.046 98.1007 18.012 98.6047 18.012C99.9927 18.012 101.031 18.244 101.719 18.708C102.411 19.168 102.757 19.89 102.757 20.874C102.757 21.51 102.593 22.046 102.265 22.482C101.937 22.914 101.461 23.238 100.837 23.454L103.567 27H101.215ZM97.5727 22.2C97.9927 22.244 98.3907 22.266 98.7667 22.266C99.4627 22.266 99.9727 22.156 100.297 21.936C100.621 21.716 100.783 21.364 100.783 20.88C100.783 20.388 100.623 20.034 100.303 19.818C99.9867 19.602 99.4827 19.494 98.7907 19.494C98.3987 19.494 97.9927 19.532 97.5727 19.608V22.2ZM112.029 22.68V26.88C111.121 27.028 110.275 27.102 109.491 27.102C107.599 27.102 106.183 26.724 105.243 25.968C104.303 25.208 103.831 24.084 103.827 22.596C103.827 21.62 104.043 20.79 104.475 20.106C104.907 19.418 105.547 18.896 106.395 18.54C107.243 18.184 108.279 18.006 109.503 18.006C110.263 18.006 110.999 18.082 111.711 18.234V19.938C111.043 19.794 110.359 19.722 109.659 19.722C108.423 19.726 107.509 19.964 106.917 20.436C106.329 20.908 106.035 21.638 106.035 22.626C106.043 24.474 107.155 25.398 109.371 25.398C109.599 25.398 109.823 25.392 110.043 25.38V22.68H112.029Z" fill="white"/>
<circle cx="23" cy="23" r="23" fill="#121212"/>
<path d="M8.60074 23.25L10.981 15.9958C11.1158 15.5852 11.499 15.3076 11.9312 15.3076H14.6141C14.9642 15.3076 15.2887 15.1245 15.4699 14.825L17.4761 11.5069C17.8815 10.8366 18.8653 10.8715 19.2221 11.5689L20.3326 13.7395C20.6862 14.4305 21.658 14.4728 22.0702 13.815L26.1018 7.38175C26.4981 6.74927 27.4226 6.75822 27.8066 7.39827L31.8886 14.2015C32.0693 14.5028 32.3948 14.6871 32.7461 14.6871H33.5061C33.9662 14.6871 34.367 15.001 34.477 15.4478L36.3993 23.25" stroke="white" stroke-width="1.6" stroke-linecap="round" stroke-linejoin="bevel"/>
<path d="M8.60074 23.25L10.981 30.5042C11.1158 30.9148 11.499 31.1924 11.9312 31.1924L14.6141 31.1924C14.9642 31.1924 15.2887 31.3755 15.4699 31.675L17.4761 34.9931C17.8815 35.6634 18.8653 35.6285 19.2221 34.9311L20.3326 32.7605C20.6862 32.0695 21.658 32.0272 22.0702 32.685L26.1018 39.1182C26.4981 39.7507 27.4226 39.7418 27.8066 39.1017L31.8886 32.2985C32.0693 31.9972 32.3948 31.8129 32.7461 31.8129L33.5061 31.8129C33.9662 31.8129 34.367 31.499 34.477 31.0522L36.3993 23.25" stroke="white" stroke-width="1.6" stroke-linecap="round"/>
<path d="M4 23H41" stroke="white" stroke-width="1.1" stroke-linecap="round" stroke-linejoin="round" stroke-dasharray="2 2.8"/>
<path d="M117.622 20.04C117.417 20.04 117.224 20.002 117.044 19.926C116.864 19.8487 116.706 19.742 116.57 19.606C116.434 19.47 116.327 19.312 116.25 19.132C116.174 18.952 116.136 18.7587 116.136 18.552C116.136 18.348 116.174 18.1567 116.25 17.978C116.327 17.798 116.434 17.64 116.57 17.504C116.706 17.368 116.864 17.2613 117.044 17.184C117.224 17.1067 117.417 17.068 117.622 17.068C117.826 17.068 118.017 17.1067 118.196 17.184C118.376 17.2613 118.534 17.368 118.67 17.504C118.807 17.64 118.915 17.798 118.992 17.978C119.069 18.1567 119.108 18.348 119.108 18.552C119.108 18.7587 119.069 18.952 118.992 19.132C118.915 19.312 118.807 19.47 118.67 19.606C118.534 19.742 118.376 19.8487 118.196 19.926C118.017 20.002 117.826 20.04 117.622 20.04ZM117.632 19.378C117.481 19.378 117.349 19.3433 117.234 19.274C117.121 19.2033 117.032 19.106 116.968 18.982C116.905 18.8567 116.874 18.7113 116.874 18.546C116.874 18.3807 116.906 18.2353 116.97 18.11C117.035 17.9833 117.125 17.8847 117.238 17.814C117.353 17.742 117.484 17.706 117.632 17.706C117.739 17.706 117.833 17.726 117.914 17.766C117.997 17.8047 118.068 17.8567 118.128 17.922C118.189 17.986 118.241 18.0553 118.282 18.13L118.044 18.2C117.995 18.112 117.937 18.0427 117.872 17.992C117.807 17.94 117.731 17.914 117.644 17.914C117.5 17.914 117.382 17.97 117.29 18.082C117.199 18.194 117.154 18.346 117.154 18.538C117.154 18.734 117.2 18.8887 117.292 19.002C117.385 19.114 117.505 19.17 117.65 19.17C117.753 19.17 117.842 19.1413 117.918 19.084C117.995 19.0253 118.058 18.9507 118.106 18.86L118.29 18.934C118.261 18.9913 118.225 19.0467 118.182 19.1C118.139 19.1533 118.091 19.2007 118.036 19.242C117.981 19.2833 117.92 19.3167 117.852 19.342C117.785 19.366 117.712 19.378 117.632 19.378ZM117.622 19.812C117.791 19.812 117.951 19.7827 118.1 19.724C118.249 19.664 118.381 19.5793 118.496 19.47C118.612 19.3593 118.703 19.2267 118.768 19.072C118.833 18.9173 118.866 18.744 118.866 18.552C118.866 18.3627 118.833 18.1907 118.768 18.036C118.703 17.8813 118.612 17.7487 118.496 17.638C118.381 17.526 118.249 17.44 118.1 17.38C117.951 17.32 117.791 17.29 117.622 17.29C117.449 17.29 117.287 17.32 117.136 17.38C116.985 17.44 116.853 17.526 116.738 17.638C116.625 17.7487 116.536 17.8813 116.472 18.036C116.408 18.1907 116.376 18.3627 116.376 18.552C116.376 18.744 116.408 18.9173 116.472 19.072C116.536 19.2267 116.625 19.3593 116.738 19.47C116.853 19.5793 116.985 19.664 117.136 19.724C117.287 19.7827 117.449 19.812 117.622 19.812Z" fill="white"/>
</svg>
